<svg width="1494" height="1750" viewBox="0 0 1494 1750" fill="none"
    xmlns="http://www.w3.org/2000/svg">
    <path fill-rule="evenodd" clip-rule="evenodd" d="M927.408 0H0V1750H1330V402.592L927.408 0Z"
        fill="#D9D9D9" />
    <rect y="830" width="1494" height="567" fill="#A9A9A9" />
    <path fill-rule="evenodd" clip-rule="evenodd" d="M930 0V401H1330L930 0Z" fill="#A9A9A9" />
    <path
        d="M340.5 1025.19V968.091H586.381V1025.19H498.17V1259H428.852V1025.19H340.5ZM691.885 968.091L745.01 1059.99H747.283L800.976 968.091H879.669L791.885 1113.55L882.51 1259H801.828L747.283 1166.1H745.01L690.464 1259H610.351L700.55 1113.55L612.624 968.091H691.885ZM906.516 1025.19V968.091H1152.4V1025.19H1064.19V1259H994.868V1025.19H906.516Z"
        fill="white" />
</svg>
    