<svg width="1494" height="1750" viewBox="0 0 1494 1750" fill="none"
    xmlns="http://www.w3.org/2000/svg">
    <path fill-rule="evenodd" clip-rule="evenodd" d="M927.408 0H0V1750H1330V402.592L927.408 0Z"
        fill="#609FFF" />
    <rect y="830" width="1494" height="567" fill="#1F68D9" />
    <path fill-rule="evenodd" clip-rule="evenodd" d="M930 0V401H1330L930 0Z" fill="#1F68D9" />
    <path
        d="M276.545 1259H169.017V968.091H276.403C306.044 968.091 331.564 973.915 352.966 985.562C374.462 997.116 391.034 1013.78 402.682 1035.56C414.33 1057.25 420.153 1083.2 420.153 1113.4C420.153 1143.71 414.33 1169.75 402.682 1191.53C391.129 1213.31 374.604 1230.02 353.108 1241.67C331.612 1253.22 306.091 1259 276.545 1259ZM239.33 1199.06H273.847C290.134 1199.06 303.913 1196.31 315.182 1190.82C326.545 1185.23 335.116 1176.19 340.892 1163.69C346.763 1151.09 349.699 1134.33 349.699 1113.4C349.699 1092.48 346.763 1075.81 340.892 1063.4C335.021 1050.9 326.356 1041.91 314.898 1036.41C303.534 1030.83 289.519 1028.03 272.852 1028.03H239.33V1199.06ZM735.778 1113.55C735.778 1145.55 729.623 1172.68 717.312 1194.94C705.002 1217.19 688.335 1234.09 667.312 1245.65C646.384 1257.2 622.9 1262.98 596.858 1262.98C570.722 1262.98 547.189 1257.15 526.261 1245.51C505.333 1233.86 488.714 1216.95 476.403 1194.8C464.188 1172.54 458.08 1145.46 458.08 1113.55C458.08 1081.54 464.188 1054.41 476.403 1032.15C488.714 1009.9 505.333 992.996 526.261 981.443C547.189 969.89 570.722 964.114 596.858 964.114C622.9 964.114 646.384 969.89 667.312 981.443C688.335 992.996 705.002 1009.9 717.312 1032.15C729.623 1054.41 735.778 1081.54 735.778 1113.55ZM663.903 1113.55C663.903 1094.61 661.205 1078.6 655.807 1065.53C650.504 1052.47 642.833 1042.57 632.795 1035.85C622.852 1029.12 610.873 1025.76 596.858 1025.76C582.938 1025.76 570.958 1029.12 560.92 1035.85C550.883 1042.57 543.165 1052.47 537.767 1065.53C532.464 1078.6 529.812 1094.61 529.812 1113.55C529.812 1132.48 532.464 1148.49 537.767 1161.56C543.165 1174.62 550.883 1184.52 560.92 1191.24C570.958 1197.97 582.938 1201.33 596.858 1201.33C610.873 1201.33 622.852 1197.97 632.795 1191.24C642.833 1184.52 650.504 1174.62 655.807 1161.56C661.205 1148.49 663.903 1132.48 663.903 1113.55ZM1040.89 1073.49H969.869C968.922 1066.2 966.981 1059.62 964.045 1053.74C961.11 1047.87 957.227 1042.85 952.398 1038.69C947.568 1034.52 941.839 1031.35 935.21 1029.17C928.676 1026.9 921.432 1025.76 913.477 1025.76C899.367 1025.76 887.199 1029.22 876.972 1036.13C866.839 1043.04 859.027 1053.03 853.534 1066.1C848.136 1079.17 845.438 1094.98 845.438 1113.55C845.438 1132.86 848.184 1149.06 853.676 1162.12C859.263 1175.1 867.076 1184.9 877.114 1191.53C887.246 1198.06 899.225 1201.33 913.051 1201.33C920.816 1201.33 927.871 1200.34 934.216 1198.35C940.655 1196.36 946.29 1193.47 951.119 1189.68C956.044 1185.8 960.068 1181.11 963.193 1175.62C966.413 1170.03 968.638 1163.73 969.869 1156.73L1040.89 1157.15C1039.66 1170.03 1035.92 1182.72 1029.67 1195.22C1023.52 1207.72 1015.04 1219.13 1004.24 1229.45C993.449 1239.68 980.286 1247.83 964.756 1253.89C949.32 1259.95 931.612 1262.98 911.631 1262.98C885.305 1262.98 861.725 1257.2 840.892 1245.65C820.153 1234 803.771 1217.05 791.744 1194.8C779.718 1172.54 773.705 1145.46 773.705 1113.55C773.705 1081.54 779.812 1054.41 792.028 1032.15C804.244 1009.9 820.769 992.996 841.602 981.443C862.436 969.89 885.778 964.114 911.631 964.114C929.244 964.114 945.532 966.576 960.494 971.5C975.456 976.33 988.619 983.432 999.983 992.807C1011.35 1002.09 1020.58 1013.5 1027.68 1027.04C1034.78 1040.58 1039.19 1056.06 1040.89 1073.49ZM1144.48 968.091L1197.6 1059.99H1199.88L1253.57 968.091H1332.26L1244.48 1113.55L1335.1 1259H1254.42L1199.88 1166.1H1197.6L1143.06 1259H1062.94L1153.14 1113.55L1065.22 968.091H1144.48Z"
        fill="white" />
</svg>
    