<svg width="1494" height="1750" viewBox="0 0 1494 1750" fill="none"
    xmlns="http://www.w3.org/2000/svg">
    <path fill-rule="evenodd" clip-rule="evenodd" d="M927.408 0H0V1750H1330V402.592L927.408 0Z"
        fill="#EE88FF" />
    <rect y="830" width="1494" height="567" fill="#BF5ECF" />
    <path fill-rule="evenodd" clip-rule="evenodd" d="M930 0V401H1330L930 0Z" fill="#C963D9" />
    <path
        d="M526.261 1055.31C525.314 1044.89 521.1 1036.79 513.619 1031.02C506.233 1025.15 495.674 1022.21 481.943 1022.21C472.852 1022.21 465.277 1023.39 459.216 1025.76C453.155 1028.13 448.61 1031.4 445.58 1035.56C442.549 1039.63 440.987 1044.32 440.892 1049.62C440.703 1053.98 441.555 1057.82 443.449 1061.13C445.438 1064.45 448.278 1067.38 451.972 1069.94C455.759 1072.4 460.305 1074.58 465.608 1076.47C470.911 1078.37 476.877 1080.02 483.506 1081.44L508.506 1087.12C522.9 1090.25 535.589 1094.42 546.574 1099.62C557.653 1104.83 566.934 1111.04 574.415 1118.23C581.991 1125.43 587.72 1133.72 591.602 1143.09C595.485 1152.47 597.473 1162.98 597.568 1174.62C597.473 1193 592.833 1208.76 583.648 1221.93C574.462 1235.09 561.252 1245.17 544.017 1252.18C526.877 1259.19 506.186 1262.69 481.943 1262.69C457.606 1262.69 436.394 1259.05 418.307 1251.76C400.22 1244.46 386.157 1233.38 376.119 1218.52C366.081 1203.65 360.92 1184.85 360.636 1162.12H427.966C428.534 1171.5 431.044 1179.31 435.494 1185.56C439.945 1191.81 446.053 1196.55 453.818 1199.77C461.678 1202.99 470.769 1204.6 481.091 1204.6C490.561 1204.6 498.61 1203.32 505.239 1200.76C511.962 1198.2 517.123 1194.65 520.722 1190.11C524.32 1185.56 526.167 1180.35 526.261 1174.48C526.167 1168.99 524.462 1164.3 521.148 1160.42C517.833 1156.44 512.72 1153.03 505.807 1150.19C498.989 1147.26 490.277 1144.56 479.67 1142.1L449.273 1134.99C424.083 1129.22 404.244 1119.89 389.756 1107.01C375.267 1094.04 368.07 1076.52 368.165 1054.45C368.07 1036.46 372.9 1020.7 382.653 1007.15C392.407 993.612 405.902 983.053 423.136 975.477C440.371 967.902 460.021 964.114 482.085 964.114C504.623 964.114 524.178 967.949 540.75 975.619C557.417 983.195 570.343 993.848 579.528 1007.58C588.714 1021.31 593.402 1037.22 593.591 1055.31H526.261ZM633.08 1259V968.091H753.25C775.03 968.091 793.828 972.021 809.642 979.881C825.551 987.646 837.814 998.82 846.432 1013.4C855.049 1027.89 859.358 1045.08 859.358 1064.97C859.358 1085.14 854.955 1102.28 846.148 1116.39C837.341 1130.4 824.841 1141.1 808.648 1148.49C792.455 1155.78 773.278 1159.43 751.119 1159.43H675.125V1104.03H738.051C748.657 1104.03 757.511 1102.66 764.614 1099.91C771.811 1097.07 777.256 1092.81 780.949 1087.12C784.642 1081.35 786.489 1073.96 786.489 1064.97C786.489 1055.97 784.642 1048.54 780.949 1042.66C777.256 1036.7 771.811 1032.25 764.614 1029.31C757.417 1026.28 748.563 1024.77 738.051 1024.77H703.392V1259H633.08ZM796.858 1126.05L869.301 1259H792.597L721.574 1126.05H796.858ZM888.406 1025.19V968.091H1134.29V1025.19H1046.08V1259H976.759V1025.19H888.406Z"
        fill="white" />
</svg>
    