<svg width="1165" height="738" viewBox="0 0 1165 738" fill="none" xmlns="http://www.w3.org/2000/svg">
    <ellipse cx="582.5" cy="369" rx="582.5" ry="369" fill="url(#paint0_radial_9_356)" />
    <ellipse cx="583.5" cy="312.5" rx="170.5" ry="173.5" transform="rotate(180 583.5 312.5)"
        fill="url(#paint1_linear_9_356)" />
    <mask id="mask0_9_356" style="mask-type:alpha" maskUnits="userSpaceOnUse" x="347" y="62"
        width="472" height="407">
        <path
            d="M593.239 78.4004C592.046 81.2795 589.73 83.5552 586.801 84.7269C583.872 85.8987 580.569 85.8705 577.619 84.6485C576.158 84.0435 574.828 83.1635 573.704 82.059C572.58 80.9544 571.685 79.6469 571.07 78.211C570.455 76.7751 570.131 75.239 570.118 73.6904C570.104 72.1418 570.401 70.611 570.992 69.1854C572.184 66.3063 574.5 64.0306 577.429 62.8589C580.358 61.6871 583.661 61.7153 586.612 62.9373C588.072 63.5424 589.402 64.4223 590.526 65.5269C591.65 66.6314 592.545 67.939 593.16 69.3748C593.775 70.8107 594.099 72.3468 594.113 73.8954C594.126 75.444 593.829 76.9748 593.239 78.4004Z"
            fill="#FF7F6E" />
        <path
            d="M502.274 99.0214C499.955 101.116 496.883 102.185 493.733 101.994C490.582 101.802 487.612 100.366 485.475 98.0005C483.337 95.6352 482.208 92.5346 482.336 89.381C482.464 86.2274 483.838 83.279 486.157 81.1844C488.475 79.0898 491.547 78.0207 494.697 78.2121C497.848 78.4036 500.818 79.84 502.956 82.2053C505.093 84.5707 506.222 87.6712 506.094 90.8248C505.966 93.9784 504.592 96.9268 502.274 99.0214Z"
            fill="#FF7F6E" />
        <path
            d="M680.404 95.7412C678.895 98.4979 676.342 100.536 673.305 101.407C670.269 102.279 666.999 101.912 664.214 100.387C662.836 99.6322 661.618 98.6159 660.63 97.3961C659.642 96.1763 658.903 94.777 658.457 93.278C658.01 91.7791 657.864 90.2098 658.027 88.6599C658.19 87.1099 658.658 85.6096 659.406 84.2446C660.915 81.4879 663.468 79.4497 666.505 78.5785C669.541 77.7072 672.811 78.0742 675.596 79.5987C676.974 80.3536 678.193 81.3699 679.18 82.5897C680.168 83.8095 680.907 85.2088 681.353 86.7077C681.8 88.2067 681.946 89.776 681.783 91.3259C681.62 92.8759 681.152 94.3762 680.404 95.7412Z"
            fill="#FF7F6E" />
        <path
            d="M749.274 146.133C748.138 147.179 746.802 147.985 745.343 148.507C743.884 149.028 742.331 149.254 740.772 149.173C739.214 149.091 737.68 148.703 736.258 148.03C734.837 147.358 733.556 146.414 732.489 145.253C731.421 144.092 730.588 142.737 730.036 141.264C729.485 139.791 729.227 138.23 729.276 136.67C729.325 135.11 729.68 133.582 730.322 132.172C730.964 130.762 731.879 129.498 733.016 128.452C734.153 127.407 735.488 126.601 736.947 126.079C738.406 125.558 739.959 125.331 741.518 125.413C743.077 125.495 744.61 125.883 746.032 126.556C747.453 127.228 748.734 128.172 749.802 129.333C750.869 130.494 751.702 131.849 752.254 133.322C752.805 134.794 753.063 136.355 753.014 137.915C752.965 139.476 752.61 141.004 751.968 142.414C751.326 143.824 750.411 145.088 749.274 146.133Z"
            fill="#FF7F6E" />
        <path
            d="M431.327 146.6C430.152 147.572 428.792 148.297 427.325 148.733C425.859 149.17 424.313 149.31 422.778 149.145C421.242 148.98 419.746 148.513 418.376 147.772C417.005 147.03 415.786 146.029 414.789 144.823C413.792 143.618 413.037 142.234 412.565 140.748C412.094 139.263 411.916 137.706 412.041 136.167C412.167 134.628 412.594 133.136 413.298 131.777C414.002 130.418 414.969 129.218 416.143 128.246C417.318 127.274 418.678 126.549 420.145 126.113C421.611 125.676 423.157 125.536 424.692 125.701C426.228 125.866 427.724 126.332 429.095 127.074C430.465 127.815 431.684 128.817 432.681 130.022C433.678 131.228 434.434 132.612 434.905 134.098C435.377 135.583 435.554 137.14 435.429 138.679C435.303 140.218 434.876 141.71 434.172 143.069C433.468 144.428 432.501 145.628 431.327 146.6Z"
            fill="#FF7F6E" />
        <path
            d="M436.415 249.853C436.215 250.433 436.372 250.56 436.885 250.233C443.205 246.263 449.285 241.923 455.805 238.253C481.932 223.553 510.172 216.34 540.525 216.613C553.658 216.733 566.492 216.873 579.025 217.033C586.232 217.12 594.515 216.6 603.875 215.473C630.622 212.253 654.645 202.673 675.945 186.733C679.855 183.803 683.265 180.533 686.875 177.203C687.655 176.483 688.515 176.11 689.455 176.083C689.776 176.07 690.091 176.181 690.335 176.393C702.015 186.62 712.452 197.933 721.645 210.333C722.405 211.36 722.385 212.31 721.585 213.183C716.498 218.736 710.065 224.423 702.285 230.243C682.515 245.043 658.145 254.243 633.735 258.203C633.509 258.24 633.278 258.209 633.072 258.112C632.866 258.016 632.696 257.859 632.585 257.663C630.358 253.803 627.695 250.32 624.595 247.213C612.695 235.246 598.305 229.543 581.425 230.103C574.638 230.323 568.118 231.673 561.865 234.153C545.525 240.64 534.648 252.04 529.235 268.353C529.102 268.76 528.822 269 528.395 269.073C524.995 269.66 521.355 270.286 517.475 270.953C499.455 274.063 481.885 280.133 465.565 288.533C446.652 298.28 431.378 312.353 419.745 330.753C417.978 333.546 416.602 336.306 415.615 339.033C415.522 339.286 415.322 339.343 415.015 339.203C414.938 339.169 414.87 339.116 414.818 339.05C414.766 338.984 414.73 338.906 414.715 338.823C408.902 303.316 413.155 270.07 427.475 239.083C430.495 232.543 434.845 224.82 440.525 215.913C444.065 210.36 447.905 205.09 452.045 200.103C472.972 174.843 499.535 157.03 531.735 146.663C555.348 139.05 578.635 136.636 601.595 139.423C618.255 141.45 633.938 145.583 648.645 151.823C652.538 153.483 656.322 155.423 659.995 157.643C660.071 157.689 660.136 157.751 660.183 157.826C660.231 157.9 660.261 157.984 660.271 158.072C660.281 158.159 660.27 158.247 660.239 158.329C660.209 158.411 660.159 158.484 660.095 158.543C650.055 167.83 638.785 174.776 626.285 179.383C611.685 184.77 597.155 187.576 582.695 187.803C571.888 187.976 561.135 188.233 550.435 188.573C527.175 189.313 504.175 195.083 482.575 204.783C465.748 212.343 452.312 223.513 442.265 238.293C439.738 242.013 437.788 245.866 436.415 249.853Z"
            fill="#FF7F6E" />
        <path
            d="M795.136 219.782C793.801 220.578 792.317 221.097 790.771 221.309C789.225 221.521 787.647 221.422 786.126 221.017C784.604 220.613 783.171 219.911 781.906 218.951C780.641 217.992 779.571 216.794 778.755 215.426C777.939 214.057 777.395 212.546 777.152 210.977C776.91 209.408 776.974 207.813 777.342 206.282C777.709 204.752 778.373 203.316 779.295 202.057C780.217 200.798 781.378 199.74 782.714 198.944C784.049 198.148 785.533 197.629 787.079 197.417C788.625 197.205 790.203 197.304 791.724 197.709C793.246 198.113 794.679 198.815 795.944 199.775C797.209 200.734 798.28 201.932 799.095 203.3C799.911 204.669 800.455 206.18 800.698 207.749C800.94 209.318 800.876 210.913 800.508 212.443C800.141 213.974 799.477 215.41 798.555 216.669C797.633 217.928 796.472 218.986 795.136 219.782Z"
            fill="#FF7F6E" />
        <path
            d="M381.056 220.177C378.27 221.548 375.038 221.726 372.071 220.671C369.105 219.616 366.647 217.416 365.238 214.553C363.829 211.69 363.585 208.4 364.56 205.406C365.534 202.412 367.647 199.96 370.434 198.589C373.22 197.218 376.452 197.04 379.419 198.095C382.385 199.149 384.843 201.35 386.252 204.213C387.661 207.076 387.905 210.366 386.93 213.36C385.956 216.353 383.843 218.806 381.056 220.177Z"
            fill="#FF7F6E" />
        <path
            d="M750.415 276.903C753.768 292.236 755.142 307.833 753.535 323.693C753.462 324.406 753.188 325.03 752.715 325.563C734.835 345.713 711.635 360.583 685.425 367.033C685.389 367.041 685.352 367.041 685.316 367.031C685.281 367.022 685.248 367.005 685.22 366.98C685.193 366.956 685.172 366.925 685.159 366.891C685.146 366.856 685.141 366.819 685.145 366.783C685.318 365.503 685.412 364.2 685.425 362.873C685.645 345.913 685.632 328.506 685.385 310.653C685.382 310.486 685.434 310.324 685.531 310.19C685.629 310.056 685.767 309.959 685.925 309.913C700.705 305.433 713.245 298.533 725.385 288.503C733.572 281.723 740.998 274.323 747.665 266.303C747.71 266.246 747.77 266.202 747.839 266.178C747.908 266.154 747.983 266.15 748.054 266.167C748.126 266.184 748.192 266.22 748.245 266.273C748.299 266.325 748.337 266.391 748.355 266.463C749.202 269.97 749.888 273.45 750.415 276.903Z"
            fill="#FF7F6E" />
        <path
            d="M566.12 278.096C566.137 280.565 565.173 282.94 563.439 284.698C561.705 286.456 559.344 287.453 556.875 287.47L541.935 287.575C540.713 287.583 539.5 287.351 538.368 286.891C537.235 286.431 536.204 285.752 535.333 284.894C534.463 284.035 533.77 283.014 533.294 281.888C532.818 280.761 532.569 279.553 532.561 278.33L532.553 277.23C532.536 274.761 533.5 272.386 535.234 270.628C536.967 268.87 539.329 267.872 541.798 267.855L556.737 267.751C557.96 267.742 559.172 267.975 560.305 268.435C561.438 268.895 562.469 269.573 563.339 270.432C564.21 271.29 564.903 272.312 565.379 273.438C565.854 274.564 566.104 275.773 566.112 276.996L566.12 278.096Z"
            fill="#FF7F6E" />
        <path
            d="M633.261 278.111C633.274 279.333 633.046 280.544 632.59 281.677C632.135 282.811 631.46 283.843 630.606 284.716C629.751 285.588 628.733 286.284 627.61 286.763C626.487 287.242 625.28 287.495 624.059 287.508L609.899 287.656C608.678 287.669 607.466 287.441 606.333 286.986C605.2 286.53 604.168 285.856 603.295 285.002C602.423 284.147 601.727 283.129 601.248 282.006C600.769 280.882 600.515 279.676 600.503 278.454L600.489 277.194C600.477 275.973 600.704 274.761 601.16 273.628C601.615 272.495 602.29 271.463 603.144 270.59C603.999 269.718 605.017 269.022 606.14 268.543C607.263 268.064 608.47 267.81 609.691 267.798L623.851 267.649C625.072 267.636 626.284 267.864 627.417 268.32C628.55 268.775 629.582 269.45 630.455 270.304C631.328 271.159 632.023 272.177 632.502 273.3C632.982 274.423 633.235 275.63 633.248 276.851L633.261 278.111Z"
            fill="#FF7F6E" />
        <path
            d="M365.013 326.889C362.27 328.434 359.004 328.787 355.932 327.871C352.86 326.954 350.235 324.842 348.634 322C347.032 319.158 346.586 315.818 347.393 312.716C348.2 309.614 350.194 307.002 352.937 305.457C355.68 303.912 358.946 303.558 362.018 304.475C365.09 305.392 367.715 307.504 369.316 310.346C370.918 313.188 371.364 316.527 370.557 319.63C369.75 322.732 367.756 325.343 365.013 326.889Z"
            fill="#FF7F6E" />
        <path
            d="M818.345 316.013C818.345 319.23 817.067 322.315 814.792 324.59C812.517 326.865 809.432 328.143 806.215 328.143C802.998 328.143 799.913 326.865 797.638 324.59C795.363 322.315 794.085 319.23 794.085 316.013C794.085 312.796 795.363 309.711 797.638 307.436C799.913 305.161 802.998 303.883 806.215 303.883C809.432 303.883 812.517 305.161 814.792 307.436C817.067 309.711 818.345 312.796 818.345 316.013Z"
            fill="#FF7F6E" />
        <path
            d="M638.205 367.953C640.918 362.04 642.375 355.673 642.575 348.853C642.908 337.946 643.048 326.553 642.995 314.673C642.975 310.033 645.032 307.386 649.165 306.733C656.845 305.513 659.355 311.053 659.365 317.623C659.378 328.776 659.345 339.106 659.265 348.613C659.172 359.8 656.935 369.853 652.555 378.773C637.665 409.073 607.055 423.863 573.815 420.473C547.605 417.803 525.205 401.003 513.695 377.963C508.285 367.133 506.935 355.863 507.175 342.933C507.335 334.266 507.348 325.886 507.215 317.793C507.162 314.16 507.572 311.62 508.445 310.173C510.305 307.106 513.358 305.9 517.605 306.553C522.405 307.293 523.655 311.853 523.575 316.303C523.402 326.336 523.435 336.43 523.675 346.583C523.875 354.923 525.938 362.716 529.865 369.963C540.935 390.423 560.805 403.143 584.315 402.633C607.525 402.123 628.455 389.213 638.205 367.953Z"
            fill="#FF7F6E" />
        <path
            d="M566.14 327.059C566.123 329.605 565.094 332.04 563.281 333.828C561.468 335.615 559.02 336.61 556.474 336.592L542.334 336.493C541.073 336.485 539.827 336.227 538.665 335.737C537.504 335.246 536.451 334.532 535.566 333.634C534.68 332.737 533.981 331.673 533.506 330.505C533.032 329.337 532.792 328.087 532.801 326.827L532.81 325.626C532.827 323.08 533.856 320.646 535.669 318.858C537.482 317.07 539.93 316.076 542.476 316.094L556.616 316.193C557.877 316.201 559.123 316.458 560.285 316.949C561.446 317.439 562.499 318.154 563.384 319.052C564.27 319.949 564.969 321.012 565.444 322.181C565.918 323.349 566.158 324.599 566.149 325.859L566.14 327.059Z"
            fill="#FF7F6E" />
        <path
            d="M633.699 326.727C633.707 327.977 633.47 329.217 632.999 330.375C632.529 331.534 631.835 332.588 630.957 333.478C630.08 334.368 629.035 335.077 627.883 335.563C626.732 336.05 625.495 336.305 624.245 336.313L610.126 336.412C607.601 336.43 605.173 335.443 603.375 333.671C601.577 331.898 600.557 329.483 600.54 326.959L600.531 325.799C600.523 324.549 600.76 323.309 601.231 322.151C601.701 320.992 602.395 319.938 603.273 319.048C604.151 318.158 605.195 317.449 606.347 316.962C607.498 316.476 608.735 316.221 609.985 316.212L624.104 316.114C626.629 316.096 629.058 317.082 630.855 318.855C632.653 320.628 633.673 323.042 633.691 325.567L633.699 326.727Z"
            fill="#FF7F6E" />
        <path
            d="M487.285 455.663C460.115 437.053 437.195 410.223 425.475 379.523C425.115 378.59 425.145 377.656 425.565 376.723C436.395 352.273 456.115 332.083 481.075 322.143C481.148 322.113 481.228 322.103 481.306 322.113C481.384 322.124 481.459 322.154 481.522 322.201C481.585 322.248 481.636 322.311 481.668 322.383C481.7 322.455 481.712 322.534 481.705 322.613C480.572 334.28 480.458 345.736 481.365 356.983C483.135 378.953 493.745 398.553 509.025 414.253C520.885 426.44 534.952 435.05 551.225 440.083C555.565 441.43 561.092 442.783 567.805 444.143C571.972 444.99 574.402 447.476 575.095 451.603C575.955 456.723 571.955 460.273 567.115 460.263C563.002 460.256 558.908 460.24 554.835 460.213C540.035 460.143 525.025 462.623 511.145 467.923C509.045 468.723 507.145 467.783 505.355 466.783C498.748 463.096 492.725 459.39 487.285 455.663Z"
            fill="#FF7F6E" />
    </mask>
    <g mask="url(#mask0_9_356)">
        <rect x="600.432" y="599.312" width="497" height="446.722"
            transform="rotate(-135 600.432 599.312)" fill="url(#paint2_linear_9_356)" />
    </g>
    <defs>
        <radialGradient id="paint0_radial_9_356" cx="0" cy="0" r="1" gradientUnits="userSpaceOnUse"
            gradientTransform="translate(582.5 369) rotate(90) scale(369 582.5)">
            <stop stop-color="#005292" />
            <stop offset="0.35" stop-color="#54B3FF" stop-opacity="0.31" />
            <stop offset="1" stop-color="#45A4FF" stop-opacity="0" />
        </radialGradient>
        <linearGradient id="paint1_linear_9_356" x1="583.5" y1="139" x2="583.5" y2="486"
            gradientUnits="userSpaceOnUse">
            <stop stop-color="#001324" />
            <stop offset="1" stop-color="#05253C" />
        </linearGradient>
        <linearGradient id="paint2_linear_9_356" x1="848.932" y1="599.312" x2="848.932" y2="1046.03"
            gradientUnits="userSpaceOnUse">
            <stop stop-color="#FF2D1C" />
            <stop offset="0.275" stop-color="#FF5643" />
            <stop offset="1" stop-color="white" />
        </linearGradient>
    </defs>
</svg>
    