<svg width="472" height="424" viewBox="0 0 472 424" fill="none" xmlns="http://www.w3.org/2000/svg">
    <ellipse cx="236.5" cy="250.5" rx="170.5" ry="173.5" transform="rotate(180 236.5 250.5)"
        fill="url(#paint0_linear_11_364)" />
    <mask id="mask0_11_364" style="mask-type:alpha" maskUnits="userSpaceOnUse" x="0" y="0"
        width="472" height="407">
        <path
            d="M246.239 16.4004C245.046 19.2795 242.73 21.5552 239.801 22.7269C236.872 23.8987 233.569 23.8705 230.619 22.6485C229.158 22.0435 227.828 21.1635 226.704 20.059C225.58 18.9544 224.685 17.6469 224.07 16.211C223.455 14.7751 223.131 13.239 223.118 11.6904C223.104 10.1418 223.401 8.61099 223.992 7.18541C225.184 4.30634 227.5 2.03061 230.429 0.85886C233.358 -0.312885 236.661 -0.284653 239.612 0.937321C241.072 1.54239 242.402 2.42232 243.526 3.52687C244.65 4.63143 245.545 5.93895 246.16 7.37484C246.775 8.81072 247.099 10.3468 247.113 11.8954C247.126 13.444 246.829 14.9748 246.239 16.4004Z"
            fill="#FF7F6E" />
        <path
            d="M155.274 37.0214C152.955 39.116 149.883 40.1852 146.733 39.9937C143.582 39.8022 140.612 38.3658 138.475 36.0005C136.337 33.6352 135.208 30.5346 135.336 27.381C135.464 24.2274 136.838 21.279 139.157 19.1844C141.475 17.0898 144.547 16.0207 147.697 16.2121C150.848 16.4036 153.818 17.84 155.956 20.2053C158.093 22.5707 159.222 25.6712 159.094 28.8248C158.966 31.9784 157.592 34.9268 155.274 37.0214Z"
            fill="#FF7F6E" />
        <path
            d="M333.404 33.7412C331.895 36.4979 329.342 38.536 326.305 39.4073C323.269 40.2786 319.999 39.9116 317.214 38.3871C315.836 37.6322 314.618 36.6159 313.63 35.3961C312.642 34.1763 311.903 32.777 311.457 31.278C311.01 29.7791 310.864 28.2098 311.027 26.6599C311.19 25.1099 311.658 23.6096 312.406 22.2446C313.915 19.4879 316.468 17.4497 319.505 16.5785C322.541 15.7072 325.811 16.0742 328.596 17.5987C329.974 18.3536 331.193 19.3699 332.18 20.5897C333.168 21.8095 333.907 23.2088 334.353 24.7077C334.8 26.2067 334.946 27.776 334.783 29.3259C334.62 30.8759 334.152 32.3762 333.404 33.7412Z"
            fill="#FF7F6E" />
        <path
            d="M402.274 84.1334C401.138 85.1787 399.802 85.9852 398.343 86.5067C396.884 87.0282 395.331 87.2545 393.772 87.1727C392.214 87.091 390.68 86.7027 389.258 86.0302C387.837 85.3576 386.556 84.414 385.489 83.253C384.421 82.0921 383.588 80.7366 383.036 79.264C382.485 77.7913 382.227 76.2304 382.276 74.6704C382.325 73.1103 382.68 71.5816 383.322 70.1716C383.964 68.7615 384.879 67.4977 386.016 66.4524C387.153 65.4071 388.488 64.6006 389.947 64.0791C391.406 63.5577 392.959 63.3313 394.518 63.4131C396.077 63.4948 397.61 63.8831 399.032 64.5556C400.453 65.2282 401.734 66.1719 402.802 67.3328C403.869 68.4938 404.702 69.8492 405.254 71.3219C405.805 72.7945 406.063 74.3554 406.014 75.9155C405.965 77.4755 405.61 79.0042 404.968 80.4143C404.326 81.8243 403.411 83.0881 402.274 84.1334Z"
            fill="#FF7F6E" />
        <path
            d="M84.3267 84.5997C83.152 85.5716 81.7923 86.2965 80.3255 86.7332C78.8586 87.1699 77.3133 87.3098 75.7776 87.1448C74.242 86.9799 72.7462 86.5134 71.3755 85.7719C70.0049 85.0304 68.7863 84.0285 67.7893 82.8234C66.7924 81.6183 66.0366 80.2335 65.5651 78.7482C65.0936 77.2629 64.9156 75.7062 65.0413 74.1668C65.1671 72.6275 65.594 71.1357 66.2979 69.7767C67.0017 68.4176 67.9686 67.2179 69.1433 66.2461C70.3181 65.2743 71.6777 64.5493 73.1446 64.1126C74.6114 63.6759 76.1568 63.536 77.6925 63.701C79.2281 63.8659 80.7239 64.3324 82.0946 65.0739C83.4652 65.8154 84.6838 66.8173 85.6807 68.0224C86.6777 69.2275 87.4335 70.6122 87.905 72.0975C88.3765 73.5828 88.5545 75.1396 88.4287 76.679C88.303 78.2183 87.876 79.7101 87.1722 81.0691C86.4684 82.4282 85.5015 83.6279 84.3267 84.5997Z"
            fill="#FF7F6E" />
        <path
            d="M89.415 187.853C89.215 188.433 89.3717 188.56 89.885 188.233C96.205 184.263 102.285 179.923 108.805 176.253C134.932 161.553 163.172 154.34 193.525 154.613C206.658 154.733 219.492 154.873 232.025 155.033C239.232 155.12 247.515 154.6 256.875 153.473C283.622 150.253 307.645 140.673 328.945 124.733C332.855 121.803 336.265 118.533 339.875 115.203C340.655 114.483 341.515 114.11 342.455 114.083C342.776 114.07 343.091 114.181 343.335 114.393C355.015 124.62 365.452 135.933 374.645 148.333C375.405 149.36 375.385 150.31 374.585 151.183C369.498 156.736 363.065 162.423 355.285 168.243C335.515 183.043 311.145 192.243 286.735 196.203C286.509 196.24 286.278 196.209 286.072 196.112C285.866 196.016 285.696 195.859 285.585 195.663C283.358 191.803 280.695 188.32 277.595 185.213C265.695 173.246 251.305 167.543 234.425 168.103C227.638 168.323 221.118 169.673 214.865 172.153C198.525 178.64 187.648 190.04 182.235 206.353C182.102 206.76 181.822 207 181.395 207.073C177.995 207.66 174.355 208.286 170.475 208.953C152.455 212.063 134.885 218.133 118.565 226.533C99.6517 236.28 84.3784 250.353 72.745 268.753C70.9784 271.546 69.6017 274.306 68.615 277.033C68.5217 277.286 68.3217 277.343 68.015 277.203C67.9379 277.169 67.8704 277.116 67.8181 277.05C67.7659 276.984 67.7305 276.906 67.715 276.823C61.9017 241.316 66.155 208.07 80.475 177.083C83.495 170.543 87.845 162.82 93.525 153.913C97.065 148.36 100.905 143.09 105.045 138.103C125.972 112.843 152.535 95.0296 184.735 84.6629C208.348 77.0496 231.635 74.6362 254.595 77.4229C271.255 79.4496 286.938 83.5829 301.645 89.8229C305.538 91.4829 309.322 93.4229 312.995 95.6429C313.071 95.6886 313.136 95.7512 313.183 95.8257C313.231 95.9002 313.261 95.9844 313.271 96.0718C313.281 96.1592 313.27 96.2473 313.239 96.3291C313.209 96.4109 313.159 96.4841 313.095 96.5429C303.055 105.83 291.785 112.776 279.285 117.383C264.685 122.77 250.155 125.576 235.695 125.803C224.888 125.976 214.135 126.233 203.435 126.573C180.175 127.313 157.175 133.083 135.575 142.783C118.748 150.343 105.312 161.513 95.265 176.293C92.7383 180.013 90.7884 183.866 89.415 187.853Z"
            fill="#FF7F6E" />
        <path
            d="M448.136 157.782C446.801 158.578 445.317 159.097 443.771 159.309C442.225 159.521 440.647 159.422 439.126 159.017C437.604 158.613 436.171 157.911 434.906 156.951C433.641 155.992 432.571 154.794 431.755 153.426C430.939 152.057 430.395 150.546 430.152 148.977C429.91 147.408 429.974 145.813 430.342 144.282C430.709 142.752 431.373 141.316 432.295 140.057C433.217 138.798 434.378 137.74 435.714 136.944C437.049 136.148 438.533 135.629 440.079 135.417C441.625 135.205 443.203 135.304 444.724 135.709C446.246 136.113 447.679 136.815 448.944 137.775C450.209 138.734 451.28 139.932 452.095 141.3C452.911 142.669 453.455 144.18 453.698 145.749C453.94 147.318 453.876 148.913 453.508 150.443C453.141 151.974 452.477 153.41 451.555 154.669C450.633 155.928 449.472 156.986 448.136 157.782Z"
            fill="#FF7F6E" />
        <path
            d="M34.0563 158.177C31.2697 159.548 28.0376 159.726 25.0712 158.671C22.1047 157.616 19.6468 155.416 18.2381 152.553C16.8295 149.69 16.5855 146.4 17.5599 143.406C18.5342 140.412 20.6471 137.96 23.4337 136.589C26.2203 135.218 29.4524 135.04 32.4188 136.095C35.3853 137.149 37.8433 139.35 39.2519 142.213C40.6605 145.076 40.9045 148.366 39.9302 151.36C38.9558 154.353 36.8429 156.806 34.0563 158.177Z"
            fill="#FF7F6E" />
        <path
            d="M403.415 214.903C406.768 230.236 408.142 245.833 406.535 261.693C406.462 262.406 406.188 263.03 405.715 263.563C387.835 283.713 364.635 298.583 338.425 305.033C338.389 305.041 338.352 305.041 338.316 305.031C338.281 305.022 338.248 305.005 338.22 304.98C338.193 304.956 338.172 304.925 338.159 304.891C338.146 304.856 338.141 304.819 338.145 304.783C338.318 303.503 338.412 302.2 338.425 300.873C338.645 283.913 338.632 266.506 338.385 248.653C338.382 248.486 338.434 248.324 338.531 248.19C338.629 248.056 338.767 247.959 338.925 247.913C353.705 243.433 366.245 236.533 378.385 226.503C386.572 219.723 393.998 212.323 400.665 204.303C400.71 204.246 400.77 204.202 400.839 204.178C400.908 204.154 400.983 204.15 401.054 204.167C401.126 204.184 401.192 204.22 401.245 204.273C401.299 204.325 401.337 204.391 401.355 204.463C402.202 207.97 402.888 211.45 403.415 214.903Z"
            fill="#FF7F6E" />
        <path
            d="M219.12 216.096C219.137 218.565 218.173 220.94 216.439 222.698C214.705 224.456 212.344 225.453 209.875 225.47L194.935 225.575C193.713 225.583 192.5 225.351 191.368 224.891C190.235 224.431 189.204 223.752 188.333 222.894C187.463 222.035 186.77 221.014 186.294 219.888C185.818 218.761 185.569 217.553 185.561 216.33L185.553 215.23C185.536 212.761 186.5 210.386 188.234 208.628C189.967 206.87 192.329 205.872 194.798 205.855L209.737 205.751C210.96 205.742 212.172 205.975 213.305 206.435C214.438 206.895 215.469 207.573 216.339 208.432C217.21 209.29 217.903 210.312 218.379 211.438C218.854 212.564 219.104 213.773 219.112 214.996L219.12 216.096Z"
            fill="#FF7F6E" />
        <path
            d="M286.261 216.111C286.274 217.333 286.046 218.544 285.59 219.677C285.135 220.811 284.46 221.843 283.606 222.716C282.751 223.588 281.733 224.284 280.61 224.763C279.487 225.242 278.28 225.495 277.059 225.508L262.899 225.656C261.678 225.669 260.466 225.441 259.333 224.986C258.2 224.53 257.168 223.856 256.295 223.002C255.423 222.147 254.727 221.129 254.248 220.006C253.769 218.882 253.515 217.676 253.503 216.454L253.489 215.194C253.477 213.973 253.704 212.761 254.16 211.628C254.615 210.495 255.29 209.463 256.144 208.59C256.999 207.718 258.017 207.022 259.14 206.543C260.263 206.064 261.47 205.81 262.691 205.798L276.851 205.649C278.072 205.636 279.284 205.864 280.417 206.32C281.55 206.775 282.582 207.45 283.455 208.304C284.328 209.159 285.023 210.177 285.502 211.3C285.982 212.423 286.235 213.63 286.248 214.851L286.261 216.111Z"
            fill="#FF7F6E" />
        <path
            d="M18.0131 264.889C15.2704 266.434 12.004 266.787 8.93223 265.871C5.86049 264.954 3.23514 262.842 1.63373 260C0.0323433 257.158 -0.413935 253.818 0.393071 250.716C1.20008 247.614 3.19425 245.002 5.93692 243.457C8.67961 241.912 11.9461 241.558 15.0179 242.475C18.0896 243.392 20.7149 245.504 22.3163 248.346C23.9177 251.188 24.364 254.527 23.557 257.63C22.75 260.732 20.7558 263.343 18.0131 264.889Z"
            fill="#FF7F6E" />
        <path
            d="M471.345 254.013C471.345 257.23 470.067 260.315 467.792 262.59C465.517 264.865 462.432 266.143 459.215 266.143C455.998 266.143 452.913 264.865 450.638 262.59C448.363 260.315 447.085 257.23 447.085 254.013C447.085 250.796 448.363 247.711 450.638 245.436C452.913 243.161 455.998 241.883 459.215 241.883C462.432 241.883 465.517 243.161 467.792 245.436C470.067 247.711 471.345 250.796 471.345 254.013Z"
            fill="#FF7F6E" />
        <path
            d="M291.205 305.953C293.918 300.04 295.375 293.673 295.575 286.853C295.908 275.946 296.048 264.553 295.995 252.673C295.975 248.033 298.032 245.386 302.165 244.733C309.845 243.513 312.355 249.053 312.365 255.623C312.378 266.776 312.345 277.106 312.265 286.613C312.172 297.8 309.935 307.853 305.555 316.773C290.665 347.073 260.055 361.863 226.815 358.473C200.605 355.803 178.205 339.003 166.695 315.963C161.285 305.133 159.935 293.863 160.175 280.933C160.335 272.266 160.348 263.886 160.215 255.793C160.162 252.16 160.572 249.62 161.445 248.173C163.305 245.106 166.358 243.9 170.605 244.553C175.405 245.293 176.655 249.853 176.575 254.303C176.402 264.336 176.435 274.43 176.675 284.583C176.875 292.923 178.938 300.716 182.865 307.963C193.935 328.423 213.805 341.143 237.315 340.633C260.525 340.123 281.455 327.213 291.205 305.953Z"
            fill="#FF7F6E" />
        <path
            d="M219.14 265.059C219.123 267.605 218.094 270.04 216.281 271.828C214.468 273.615 212.02 274.61 209.474 274.592L195.334 274.493C194.073 274.485 192.827 274.227 191.665 273.737C190.504 273.246 189.451 272.532 188.566 271.634C187.68 270.737 186.981 269.673 186.506 268.505C186.032 267.337 185.792 266.087 185.801 264.827L185.81 263.626C185.827 261.08 186.856 258.646 188.669 256.858C190.482 255.07 192.93 254.076 195.476 254.094L209.616 254.193C210.877 254.201 212.123 254.458 213.285 254.949C214.446 255.439 215.499 256.154 216.384 257.052C217.27 257.949 217.969 259.012 218.444 260.181C218.918 261.349 219.158 262.599 219.149 263.859L219.14 265.059Z"
            fill="#FF7F6E" />
        <path
            d="M286.699 264.727C286.707 265.977 286.47 267.217 285.999 268.375C285.529 269.534 284.835 270.588 283.957 271.478C283.08 272.368 282.035 273.077 280.883 273.563C279.732 274.05 278.495 274.305 277.245 274.313L263.126 274.412C260.601 274.43 258.173 273.443 256.375 271.671C254.577 269.898 253.557 267.483 253.54 264.959L253.531 263.799C253.523 262.549 253.76 261.309 254.231 260.151C254.701 258.992 255.395 257.938 256.273 257.048C257.151 256.158 258.195 255.449 259.347 254.962C260.498 254.476 261.735 254.221 262.985 254.212L277.104 254.114C279.629 254.096 282.058 255.082 283.855 256.855C285.653 258.628 286.673 261.042 286.691 263.567L286.699 264.727Z"
            fill="#FF7F6E" />
        <path
            d="M140.285 393.663C113.115 375.053 90.195 348.223 78.475 317.523C78.115 316.59 78.145 315.656 78.565 314.723C89.395 290.273 109.115 270.083 134.075 260.143C134.148 260.113 134.228 260.103 134.306 260.113C134.384 260.124 134.459 260.154 134.522 260.201C134.585 260.248 134.636 260.311 134.668 260.383C134.7 260.455 134.712 260.534 134.705 260.613C133.572 272.28 133.458 283.736 134.365 294.983C136.135 316.953 146.745 336.553 162.025 352.253C173.885 364.44 187.952 373.05 204.225 378.083C208.565 379.43 214.092 380.783 220.805 382.143C224.972 382.99 227.402 385.476 228.095 389.603C228.955 394.723 224.955 398.273 220.115 398.263C216.002 398.256 211.908 398.24 207.835 398.213C193.035 398.143 178.025 400.623 164.145 405.923C162.045 406.723 160.145 405.783 158.355 404.783C151.748 401.096 145.725 397.39 140.285 393.663Z"
            fill="#FF7F6E" />
    </mask>
    <g mask="url(#mask0_11_364)">
        <rect x="253.432" y="537.312" width="497" height="446.722"
            transform="rotate(-135 253.432 537.312)" fill="url(#paint1_linear_11_364)" />
    </g>
    <defs>
        <linearGradient id="paint0_linear_11_364" x1="236.5" y1="77" x2="236.5" y2="424"
            gradientUnits="userSpaceOnUse">
            <stop stop-color="#001324" />
            <stop offset="1" stop-color="#05253C" />
        </linearGradient>
        <linearGradient id="paint1_linear_11_364" x1="501.932" y1="537.312" x2="501.932"
            y2="984.035" gradientUnits="userSpaceOnUse">
            <stop stop-color="#FF2D1C" />
            <stop offset="0.275" stop-color="#FF5643" />
            <stop offset="1" stop-color="white" />
        </linearGradient>
    </defs>
</svg>
    