<svg width="343" height="348" viewBox="0 0 343 348" fill="none" xmlns="http://www.w3.org/2000/svg">
    <ellipse cx="171.5" cy="174.5" rx="170.5" ry="173.5" transform="rotate(180 171.5 174.5)"
        fill="url(#paint0_linear_0_1)" />
    <mask id="mask0_0_1" style="mask-type:alpha" maskUnits="userSpaceOnUse" x="0" y="0" width="343"
        height="331">
        <path
            d="M24.4151 111.853C24.2151 112.433 24.3717 112.56 24.8851 112.233C31.2051 108.263 37.2851 103.923 43.8051 100.253C69.9318 85.553 98.1718 78.3396 128.525 78.6129C141.658 78.7329 154.492 78.873 167.025 79.033C174.232 79.1196 182.515 78.5996 191.875 77.473C218.622 74.253 242.645 64.6729 263.945 48.7329C267.855 45.8029 271.265 42.5329 274.875 39.2029C275.655 38.4829 276.515 38.1096 277.455 38.0829C277.776 38.0701 278.091 38.1809 278.335 38.3929C290.015 48.6196 300.452 59.9329 309.645 72.3329C310.405 73.3596 310.385 74.3096 309.585 75.183C304.498 80.7363 298.065 86.423 290.285 92.243C270.515 107.043 246.145 116.243 221.735 120.203C221.509 120.24 221.278 120.209 221.072 120.112C220.866 120.016 220.696 119.859 220.585 119.663C218.358 115.803 215.695 112.32 212.595 109.213C200.695 97.2463 186.305 91.543 169.425 92.103C162.638 92.323 156.118 93.673 149.865 96.153C133.525 102.64 122.648 114.04 117.235 130.353C117.102 130.76 116.822 131 116.395 131.073C112.995 131.66 109.355 132.286 105.475 132.953C87.4551 136.063 69.8851 142.133 53.5651 150.533C34.6518 160.28 19.3784 174.353 7.74509 192.753C5.97842 195.546 4.60175 198.306 3.61509 201.033C3.52175 201.286 3.32175 201.343 3.01508 201.203C2.938 201.169 2.87044 201.116 2.81818 201.05C2.76592 200.984 2.73053 200.906 2.71509 200.823C-3.09824 165.316 1.1551 132.07 15.4751 101.083C18.4951 94.5429 22.8451 86.8196 28.5251 77.913C32.0651 72.3596 35.9051 67.0896 40.0451 62.103C60.9717 36.843 87.5351 19.0296 119.735 8.66295C143.348 1.04962 166.635 -1.36373 189.595 1.42294C206.255 3.44961 221.938 7.58296 236.645 13.823C240.538 15.483 244.322 17.4229 247.995 19.6429C248.071 19.6887 248.136 19.7513 248.184 19.8257C248.231 19.9002 248.261 19.9845 248.271 20.0719C248.281 20.1593 248.27 20.2473 248.239 20.3291C248.209 20.4109 248.159 20.4841 248.095 20.543C238.055 29.8296 226.785 36.7763 214.285 41.383C199.685 46.7696 185.155 49.5763 170.695 49.8029C159.888 49.9763 149.135 50.233 138.435 50.573C115.175 51.313 92.1751 57.083 70.5751 66.783C53.7484 74.343 40.3117 85.513 30.2651 100.293C27.7384 104.013 25.7884 107.866 24.4151 111.853Z"
            fill="#FF7F6E" />
        <path
            d="M338.415 138.903C341.768 154.236 343.142 169.833 341.535 185.693C341.462 186.406 341.188 187.03 340.715 187.563C322.835 207.713 299.635 222.583 273.425 229.033C273.389 229.041 273.352 229.041 273.316 229.032C273.281 229.022 273.248 229.005 273.22 228.98C273.193 228.956 273.172 228.925 273.159 228.891C273.146 228.857 273.141 228.819 273.145 228.783C273.318 227.503 273.412 226.2 273.425 224.873C273.645 207.913 273.632 190.506 273.385 172.653C273.382 172.486 273.434 172.324 273.531 172.19C273.629 172.056 273.767 171.959 273.925 171.913C288.705 167.433 301.245 160.533 313.385 150.503C321.572 143.723 328.998 136.323 335.665 128.303C335.71 128.246 335.77 128.202 335.839 128.178C335.908 128.154 335.983 128.151 336.054 128.167C336.126 128.184 336.192 128.22 336.245 128.273C336.299 128.325 336.337 128.391 336.355 128.463C337.202 131.97 337.888 135.45 338.415 138.903Z"
            fill="#FF7F6E" />
        <path
            d="M154.12 140.096C154.137 142.565 153.173 144.94 151.439 146.698C149.705 148.456 147.344 149.453 144.875 149.47L129.935 149.575C128.713 149.583 127.501 149.351 126.368 148.891C125.235 148.431 124.204 147.752 123.333 146.894C122.463 146.036 121.77 145.014 121.294 143.888C120.818 142.762 120.569 141.553 120.561 140.33L120.553 139.23C120.536 136.761 121.5 134.386 123.234 132.628C124.968 130.87 127.329 129.873 129.798 129.855L144.737 129.751C145.96 129.742 147.172 129.975 148.305 130.435C149.438 130.895 150.469 131.573 151.339 132.432C152.21 133.29 152.903 134.312 153.379 135.438C153.854 136.564 154.104 137.773 154.112 138.996L154.12 140.096Z"
            fill="#FF7F6E" />
        <path
            d="M221.261 140.111C221.274 141.333 221.046 142.544 220.59 143.678C220.135 144.811 219.46 145.843 218.606 146.716C217.751 147.588 216.733 148.284 215.61 148.763C214.487 149.242 213.28 149.495 212.059 149.508L197.9 149.657C196.678 149.669 195.467 149.441 194.333 148.986C193.2 148.53 192.168 147.856 191.295 147.002C190.423 146.147 189.727 145.129 189.248 144.006C188.769 142.882 188.515 141.676 188.503 140.454L188.489 139.195C188.477 137.973 188.704 136.762 189.16 135.628C189.616 134.495 190.29 133.463 191.144 132.59C191.999 131.718 193.017 131.022 194.14 130.543C195.264 130.064 196.47 129.81 197.691 129.798L211.851 129.649C213.072 129.637 214.284 129.864 215.417 130.32C216.55 130.775 217.582 131.45 218.455 132.304C219.328 133.159 220.023 134.177 220.502 135.3C220.982 136.423 221.235 137.63 221.248 138.851L221.261 140.111Z"
            fill="#FF7F6E" />
        <path
            d="M226.205 229.953C228.918 224.04 230.375 217.673 230.575 210.853C230.908 199.946 231.048 188.553 230.995 176.673C230.975 172.033 233.032 169.386 237.165 168.733C244.845 167.513 247.355 173.053 247.365 179.623C247.378 190.776 247.345 201.106 247.265 210.613C247.172 221.8 244.935 231.853 240.555 240.773C225.665 271.073 195.055 285.863 161.815 282.473C135.605 279.803 113.205 263.003 101.695 239.963C96.2851 229.133 94.9351 217.863 95.1751 204.933C95.3351 196.266 95.3484 187.886 95.2151 179.793C95.1618 176.16 95.5718 173.62 96.4451 172.173C98.3051 169.106 101.358 167.9 105.605 168.553C110.405 169.293 111.655 173.853 111.575 178.303C111.402 188.336 111.435 198.43 111.675 208.583C111.875 216.923 113.938 224.716 117.865 231.963C128.935 252.423 148.805 265.143 172.315 264.633C195.525 264.123 216.455 251.213 226.205 229.953Z"
            fill="#FF7F6E" />
        <path
            d="M154.14 189.059C154.123 191.605 153.094 194.04 151.281 195.828C149.468 197.616 147.02 198.61 144.474 198.592L130.334 198.493C129.073 198.485 127.827 198.228 126.665 197.737C125.504 197.246 124.451 196.532 123.566 195.634C122.68 194.737 121.981 193.673 121.506 192.505C121.032 191.337 120.792 190.087 120.801 188.827L120.81 187.627C120.827 185.081 121.856 182.646 123.669 180.858C125.482 179.07 127.93 178.076 130.476 178.094L144.616 178.193C145.877 178.201 147.123 178.458 148.285 178.949C149.446 179.439 150.499 180.154 151.385 181.052C152.27 181.949 152.969 183.012 153.444 184.181C153.918 185.349 154.158 186.599 154.149 187.859L154.14 189.059Z"
            fill="#FF7F6E" />
        <path
            d="M221.699 188.727C221.707 189.977 221.47 191.217 221 192.375C220.529 193.534 219.835 194.588 218.957 195.478C218.08 196.368 217.035 197.077 215.883 197.563C214.732 198.05 213.496 198.305 212.245 198.313L198.126 198.412C195.601 198.43 193.173 197.444 191.375 195.671C189.577 193.898 188.557 191.483 188.54 188.959L188.531 187.799C188.523 186.549 188.76 185.309 189.231 184.151C189.701 182.992 190.395 181.938 191.273 181.048C192.151 180.158 193.195 179.449 194.347 178.963C195.498 178.476 196.735 178.221 197.985 178.212L212.104 178.114C214.629 178.096 217.058 179.082 218.855 180.855C220.653 182.628 221.673 185.042 221.691 187.567L221.699 188.727Z"
            fill="#FF7F6E" />
        <path
            d="M75.2851 317.663C48.1151 299.053 25.1951 272.223 13.4751 241.523C13.1151 240.59 13.1451 239.656 13.5651 238.723C24.3951 214.273 44.1151 194.083 69.0751 184.143C69.1483 184.113 69.2279 184.103 69.3062 184.113C69.3845 184.124 69.4589 184.154 69.5222 184.201C69.5855 184.248 69.6356 184.311 69.6676 184.383C69.6996 184.455 69.7125 184.534 69.7051 184.613C68.5718 196.28 68.4584 207.736 69.3651 218.983C71.1351 240.953 81.7451 260.553 97.0251 276.253C108.885 288.44 122.952 297.05 139.225 302.083C143.565 303.43 149.092 304.783 155.805 306.143C159.972 306.99 162.402 309.476 163.095 313.603C163.955 318.723 159.955 322.273 155.115 322.263C151.002 322.256 146.908 322.24 142.835 322.213C128.035 322.143 113.025 324.623 99.1451 329.923C97.0451 330.723 95.1451 329.783 93.3551 328.783C86.7484 325.096 80.7251 321.39 75.2851 317.663Z"
            fill="#FF7F6E" />
    </mask>
    <g mask="url(#mask0_0_1)">
        <rect x="169.994" y="424.324" width="354.044" height="356.608"
            transform="rotate(-135 169.994 424.324)" fill="url(#paint1_linear_0_1)" />
    </g>
    <defs>
        <linearGradient id="paint0_linear_0_1" x1="171.5" y1="0.999985" x2="171.5" y2="348"
            gradientUnits="userSpaceOnUse">
            <stop stop-color="#001324" />
            <stop offset="1" stop-color="#05253C" />
        </linearGradient>
        <linearGradient id="paint1_linear_0_1" x1="347.016" y1="424.324" x2="347.016" y2="780.932"
            gradientUnits="userSpaceOnUse">
            <stop stop-color="#FF1300" />
            <stop offset="0.275" stop-color="#FF6B3C" />
            <stop offset="1" stop-color="white" />
        </linearGradient>
    </defs>
</svg>
    